<svg width="37" height="36" viewBox="0 0 37 36" fill="none" xmlns="http://www.w3.org/2000/svg">
<path d="M36.5987 17.8667C36.5987 14.3334 35.551 10.8794 33.588 7.9416C31.6249 5.00375 28.8348 2.71398 25.5705 1.36184C22.3061 0.00969337 18.7141 -0.344089 15.2487 0.345228C11.7833 1.03454 8.60006 2.736 6.10162 5.23443C3.60319 7.73287 1.90173 10.9161 1.21242 14.3815C0.523099 17.8469 0.876881 21.4389 2.22902 24.7033C3.58117 27.9677 5.87094 30.7578 8.80879 32.7208C11.7466 34.6838 15.2006 35.7315 18.7339 35.7315C23.4691 35.7221 28.0076 33.8369 31.3558 30.4886C34.7041 27.1404 36.5893 22.6019 36.5987 17.8667V17.8667ZM19.4485 34.2845V21.4397H24.4507C24.6402 21.4397 24.8219 21.3644 24.956 21.2304C25.09 21.0964 25.1652 20.9146 25.1652 20.7251C25.1652 20.5356 25.09 20.3538 24.956 20.2198C24.8219 20.0858 24.6402 20.0105 24.4507 20.0105H19.4485V15.0084C19.4532 14.0622 19.8312 13.1561 20.5002 12.4871C21.1692 11.8181 22.0753 11.4401 23.0215 11.4354H25.8798C26.0694 11.4354 26.2511 11.3601 26.3851 11.2261C26.5191 11.0921 26.5944 10.9104 26.5944 10.7208C26.5944 10.5313 26.5191 10.3495 26.3851 10.2155C26.2511 10.0815 26.0694 10.0062 25.8798 10.0062H23.0215C21.6963 10.0109 20.4267 10.5395 19.4896 11.4765C18.5526 12.4136 18.024 13.6832 18.0193 15.0084V20.0105H13.0172C12.8277 20.0105 12.6459 20.0858 12.5119 20.2198C12.3779 20.3538 12.3026 20.5356 12.3026 20.7251C12.3026 20.9146 12.3779 21.0964 12.5119 21.2304C12.6459 21.3644 12.8277 21.4397 13.0172 21.4397H18.0193V34.2845C13.7263 34.0976 9.67716 32.2369 6.73937 29.1009C3.80157 25.9649 2.20878 21.8031 2.30222 17.507C2.39565 13.211 4.16789 9.12231 7.23925 6.11702C10.3106 3.11173 14.4368 1.42882 18.7339 1.42882C23.031 1.42882 27.1572 3.11173 30.2286 6.11702C33.3 9.12231 35.0722 13.211 35.1656 17.507C35.2591 21.8031 33.6663 25.9649 30.7285 29.1009C27.7907 32.2369 23.7416 34.0976 19.4485 34.2845V34.2845Z" fill="white"/>
</svg>
