<svg width="36" height="36" viewBox="0 0 36 36" fill="none" xmlns="http://www.w3.org/2000/svg">
<path d="M17.867 10.0065C16.3123 10.0065 14.7926 10.4675 13.4999 11.3312C12.2073 12.1949 11.1998 13.4226 10.6048 14.8589C10.0099 16.2952 9.85422 17.8757 10.1575 19.4005C10.4608 20.9253 11.2095 22.3259 12.3088 23.4252C13.4081 24.5245 14.8087 25.2732 16.3335 25.5765C17.8583 25.8798 19.4388 25.7241 20.8751 25.1291C22.3114 24.5342 23.539 23.5267 24.4028 22.234C25.2665 20.9414 25.7275 19.4216 25.7275 17.867C25.7275 15.7823 24.8993 13.7829 23.4252 12.3088C21.9511 10.8346 19.9517 10.0065 17.867 10.0065ZM17.867 24.2983C16.595 24.2983 15.3516 23.9211 14.2939 23.2144C13.2363 22.5078 12.412 21.5033 11.9252 20.3281C11.4384 19.153 11.3111 17.8599 11.5592 16.6123C11.8074 15.3647 12.4199 14.2188 13.3194 13.3194C14.2188 12.4199 15.3647 11.8074 16.6123 11.5592C17.8599 11.3111 19.153 11.4384 20.3281 11.9252C21.5033 12.412 22.5078 13.2363 23.2144 14.2939C23.9211 15.3516 24.2983 16.595 24.2983 17.867C24.2983 19.5727 23.6207 21.2085 22.4146 22.4146C21.2085 23.6207 19.5727 24.2983 17.867 24.2983V24.2983ZM25.7275 0.716797H10.0065C7.5427 0.716797 5.17984 1.69553 3.43768 3.43768C1.69553 5.17984 0.716797 7.5427 0.716797 10.0065V25.7275C0.716797 26.9474 0.957082 28.1554 1.42393 29.2825C1.89078 30.4096 2.57506 31.4337 3.43768 32.2963C5.17984 34.0384 7.5427 35.0172 10.0065 35.0172H25.7275C26.9474 35.0172 28.1554 34.7769 29.2825 34.31C30.4096 33.8432 31.4337 33.1589 32.2963 32.2963C33.1589 31.4337 33.8432 30.4096 34.31 29.2825C34.7769 28.1554 35.0172 26.9474 35.0172 25.7275V10.0065C35.0172 8.78654 34.7769 7.57855 34.31 6.45147C33.8432 5.3244 33.1589 4.30031 32.2963 3.43768C31.4337 2.57506 30.4096 1.89078 29.2825 1.42393C28.1554 0.957082 26.9474 0.716797 25.7275 0.716797V0.716797ZM33.588 25.7275C33.588 27.8122 32.7598 29.8116 31.2857 31.2857C29.8116 32.7598 27.8122 33.588 25.7275 33.588H10.0065C7.92175 33.588 5.9224 32.7598 4.44827 31.2857C2.97414 29.8116 2.14598 27.8122 2.14598 25.7275V10.0065C2.14598 7.92175 2.97414 5.9224 4.44827 4.44827C5.9224 2.97414 7.92175 2.14598 10.0065 2.14598H25.7275C27.8122 2.14598 29.8116 2.97414 31.2857 4.44827C32.7598 5.9224 33.588 7.92175 33.588 10.0065V25.7275ZM28.5859 8.5773C28.5859 8.85997 28.502 9.13628 28.345 9.37131C28.188 9.60634 27.9647 9.78952 27.7036 9.89769C27.4424 10.0059 27.1551 10.0342 26.8779 9.97902C26.6006 9.92388 26.346 9.78776 26.1461 9.58788C25.9462 9.38801 25.8101 9.13335 25.755 8.85612C25.6998 8.57889 25.7281 8.29152 25.8363 8.03038C25.9445 7.76923 26.1276 7.54602 26.3627 7.38898C26.5977 7.23194 26.874 7.14812 27.1567 7.14812C27.5357 7.14812 27.8992 7.29869 28.1673 7.56672C28.4353 7.83474 28.5859 8.19826 28.5859 8.5773Z" fill="white"/>
</svg>
