<svg width="47" height="46" viewBox="0 0 47 46" fill="none" xmlns="http://www.w3.org/2000/svg">
<path d="M15.6365 13.5386C16.0311 13.5386 16.3511 13.2186 16.3511 12.824C16.3511 12.4293 16.0311 12.1094 15.6365 12.1094C15.2418 12.1094 14.9219 12.4293 14.9219 12.824C14.9219 13.2186 15.2418 13.5386 15.6365 13.5386Z" fill="white"/>
<path d="M15.6367 16.1299V30.4027M21.1819 21.2464C21.1845 19.7748 21.7708 18.3644 22.8123 17.3248C23.8537 16.2851 25.2651 15.7012 26.7367 15.7012C28.2066 15.7037 29.6156 16.2887 30.655 17.3281C31.6944 18.3675 32.2794 19.7765 32.2819 21.2464V30.4027M21.1819 21.2464V30.4027M21.1819 21.2464V16.1299" stroke="white" stroke-width="0.952788" stroke-linecap="round" stroke-linejoin="round"/>
<path d="M39.3232 5.24023H7.88116C7.37577 5.24023 6.89108 5.441 6.53372 5.79836C6.17635 6.15573 5.97559 6.64042 5.97559 7.14581V38.5878C5.97559 39.0932 6.17635 39.5779 6.53372 39.9353C6.89108 40.2926 7.37577 40.4934 7.88116 40.4934H39.3232C39.8286 40.4934 40.3133 40.2926 40.6706 39.9353C41.028 39.5779 41.2288 39.0932 41.2288 38.5878V7.14581C41.2288 6.64042 41.028 6.15573 40.6706 5.79836C40.3133 5.441 39.8286 5.24023 39.3232 5.24023V5.24023Z" stroke="white" stroke-width="0.952788" stroke-linecap="round" stroke-linejoin="round"/>
</svg>
