<svg width="432" height="450" viewBox="0 0 432 450" fill="none" xmlns="http://www.w3.org/2000/svg">
<path d="M207.643 428.307C271.737 432.795 324.976 410.262 367.938 362.709C410.899 315.157 425.543 259.416 419.843 196.79C426.259 231.73 423.116 267.755 410.748 301.055C401.199 329.476 385.053 355.23 363.633 376.205C316.214 421.696 259.458 443.652 193.848 437.344C172.17 435.252 153.191 442.166 132.968 445.017C118.476 447.049 103.984 449.233 89.4005 449.96C73.6651 450.749 63.1749 439.68 64.1754 423.788C64.9787 412.957 66.59 402.202 68.996 391.611C69.6573 389.225 69.5986 386.697 68.8272 384.344C68.0557 381.991 66.6061 379.919 64.6605 378.389C33.8135 348.775 12.7782 310.419 4.387 268.483C-18.0185 161.186 47.5001 52.9492 152.948 23.35C166.774 19.4681 180.993 16.951 194.818 13.0691C198.304 11.4716 201.305 8.98166 203.52 5.85125C206.703 2.18168 209.371 -1.70017 216.132 0.786643L211.13 11.1282C295.143 10.9765 361.056 43.6387 404.229 116.302C431.365 162.005 438.247 211.65 426.483 263.601C426.908 260.993 427.362 258.384 427.726 255.776C435.943 194.91 422.39 139.836 383.491 91.7071C378.436 85.7199 373.009 80.0577 367.241 74.7543C365.454 73.1297 363.136 72.2132 360.722 72.1765C329.464 73.7232 298.114 74.4207 267.007 77.514C239.447 80.2435 212.13 85.5507 184.783 90.2211C183.072 90.7308 181.494 91.6122 180.163 92.8022C178.832 93.9922 177.78 95.4616 177.082 97.1053C158.224 150.451 139.729 203.917 121.205 257.384C120.744 259.238 120.419 261.123 120.235 263.025C134.575 261.538 148.31 260.265 162.014 258.657C190.594 255.281 219.154 251.803 247.694 248.225C253.455 247.497 259.064 245.89 264.794 244.919C266.37 244.646 269.19 244.919 269.524 245.586C270.131 247.429 270.066 249.427 269.342 251.227C268.376 253.574 266.751 255.591 264.663 257.033C262.575 258.476 260.114 259.282 257.578 259.355C231.989 262.388 206.43 265.42 180.872 268.453C161.559 270.697 142.246 272.911 122.933 274.973C120.436 274.941 118.007 275.784 116.068 277.358C114.129 278.932 112.804 281.136 112.321 283.586C104.236 311.73 95.7977 339.782 87.0053 367.744C85.0346 374.052 86.5505 377.934 91.6441 381.997C113.09 399.401 137.754 412.406 164.227 420.27C167.981 421.603 172.027 421.886 175.93 421.089C200.791 413.507 225.562 405.612 250.241 397.404C255.355 395.258 260.337 392.807 265.158 390.064C267.371 389.003 270.069 387.274 272.04 387.79C275.151 389.016 278.071 390.68 280.711 392.733C279.013 394.947 277.679 398.283 275.496 399.223C256.244 407.412 236.81 415.175 217.406 422.969C213.95 424.334 210.342 425.305 206.825 426.457L207.643 428.307ZM328.918 53.2524C325.886 51.8574 322.854 50.6443 320.065 49.037C288.182 30.6235 251.811 21.4362 215.011 22.5008C211.221 22.5008 207.552 22.5008 205.642 26.9892C199.578 41.9404 193.03 56.7704 186.814 71.6609C186.351 73.3334 186.076 75.0525 185.996 76.7862C236.148 68.9216 286.824 64.8664 337.589 64.6554C339.064 64.4387 340.503 64.0203 341.864 63.412L353.628 64.807L354.022 62.3808C320.671 35.0865 282.106 20.3779 239.144 16.8903C249.301 19.4984 259.7 21.318 269.766 24.3811C290.959 30.5981 311.545 38.7561 328.978 53.2524H328.918ZM192.696 25.5335C181.084 22.5008 140.396 35.1168 115.687 49.3099C75.366 71.9231 44.6837 108.48 29.3999 152.119C-1.55546 237.034 30.7339 326.226 74.605 363.559C82.3666 335.112 90.0675 306.817 97.9503 277.945C89.4914 278.886 82.0027 279.947 74.4837 280.341C72.4523 280.341 68.42 278.552 68.42 277.612C68.4688 274.968 69.5583 272.451 71.4518 270.606C73.7773 269.128 76.4344 268.252 79.1831 268.059C84.4282 267.21 89.7037 266.603 94.9791 266.148C97.3525 266.062 99.6311 265.195 101.462 263.681C103.293 262.168 104.573 260.093 105.106 257.778C123.297 206.404 142.064 155.121 160.558 103.808C161.377 101.594 161.923 99.3192 163.014 95.68C158.83 96.6504 156.132 97.075 153.555 97.8635C131.665 104.778 109.805 111.875 87.8542 118.547C85.2165 119.365 81.7905 118.001 78.9102 117.637C79.6682 114.604 79.3953 110.237 81.366 108.296C84.7815 104.958 88.9368 102.475 93.4935 101.048C116.455 94.2546 139.507 87.7747 162.65 81.6082C164.858 81.2868 166.938 80.3725 168.668 78.9626C170.398 77.5527 171.713 75.7001 172.474 73.6019C177.082 61.4711 182.267 49.7648 187.269 37.8766C189.088 33.7218 190.907 29.658 192.696 25.5335ZM145.278 429.914L80.0623 394.947C78.3948 405.319 76.0603 415.812 75.2417 426.427C74.4837 435.98 79.0012 440.286 88.6122 439.012C107.531 436.525 126.298 433.008 145.278 429.914ZM73.3013 371.595C51.6841 345.393 33.1291 317.401 23.0329 284.526C13.2315 251.619 11.1564 216.893 16.9692 183.052C0.657784 245.647 19.8799 324.103 73.3013 371.595ZM164.712 423.364C135.503 414.362 108.327 399.755 84.7011 380.36C88.0664 393.916 145.338 424.273 164.712 423.364Z" fill="#E1A9A2" fill-opacity="0.4"/>
</svg>
